<svg width="77" height="77" viewBox="0 0 77 77" fill="none" xmlns="http://www.w3.org/2000/svg">
<path d="M65.7235 11.2763C58.4519 4.00475 48.7836 0 38.5 0C29.789 0 21.5717 2.83795 14.7367 8.20693C14.2462 8.5923 14.1608 9.3022 14.5462 9.79284C14.9316 10.2835 15.6416 10.3687 16.1321 9.98334C22.5653 4.93 30.3 2.25891 38.5 2.25891C48.1803 2.25891 57.2812 6.02859 64.1263 12.8737C70.9714 19.7188 74.7411 28.8197 74.7411 38.5C74.7411 48.1803 70.9714 57.2812 64.1263 64.1263C57.2812 70.9714 48.1803 74.7411 38.5 74.7411C28.8197 74.7411 19.7188 70.9714 12.8737 64.1263C6.02859 57.2812 2.25891 48.1803 2.25891 38.5C2.25891 28.9422 5.94907 19.9229 12.6495 13.1033C13.0866 12.6583 13.0803 11.9433 12.6355 11.5061C12.1906 11.069 11.4754 11.0753 11.0382 11.5202C3.92012 18.7646 0 28.3462 0 38.5C0 48.7838 4.00475 58.4519 11.2763 65.7235C18.5479 72.9951 28.2162 76.9998 38.4998 76.9998C48.7835 76.9998 58.4518 72.9951 65.7234 65.7235C72.9949 58.4519 76.9997 48.7836 76.9997 38.5C76.9997 28.2164 72.9952 18.5481 65.7235 11.2763Z" fill="black"/>
<path d="M18.2795 18.7884C20.947 16.0514 24.0703 13.9138 27.5628 12.435C31.1874 10.9003 35.0335 10.1555 38.9899 10.2234C41.3879 10.264 43.7675 10.6069 46.0625 11.2426C46.6638 11.4093 47.2861 11.0568 47.4525 10.4556C47.6189 9.85441 47.2667 9.23201 46.6655 9.0656C44.1866 8.37904 41.617 8.00873 39.0283 7.96476C34.7523 7.89232 30.5991 8.69634 26.6819 10.355C22.9114 11.9516 19.5402 14.2585 16.6619 17.2118C13.7819 20.1668 11.5611 23.5988 10.0612 27.4123C8.50313 31.3736 7.80588 35.5495 7.98855 39.8245C8.17212 44.1205 9.23215 48.2434 11.1391 52.0785C11.4218 52.6469 11.9383 53.0557 12.5561 53.1999C12.7163 53.2373 12.8782 53.2556 13.039 53.2556C13.4968 53.2556 13.9454 53.1066 14.318 52.8228L58.7334 19.002C59.2365 18.6187 59.5395 18.0366 59.5645 17.4049C59.5896 16.7697 59.3317 16.1616 58.8568 15.7366C56.6148 13.7301 54.0964 12.0694 51.3714 10.8006C50.8058 10.5374 50.134 10.7822 49.8707 11.3477C49.6073 11.9132 49.8524 12.5851 50.4178 12.8484C52.8915 14.0001 55.1813 15.5006 57.2267 17.3099L48.819 23.7121C47.1131 22.5292 45.2461 21.6625 43.2768 21.128L43.7399 18.261C43.8394 17.6453 43.4208 17.0655 42.805 16.9659C42.1898 16.8665 41.6094 17.285 41.5099 17.9008L41.0619 20.6745C40.2201 20.5564 39.3653 20.4931 38.4998 20.4931C37.3839 20.4931 36.27 20.5954 35.1768 20.7978L34.3508 19.0541C35.0505 18.1976 35.263 17.0081 34.8398 15.9286C34.2088 14.3191 32.3857 13.523 30.7763 14.1537L27.6596 15.3755C26.0501 16.0063 25.2537 17.8293 25.8846 19.439C26.2833 20.4562 27.1703 21.1687 28.2005 21.3703L28.8062 23.2958C27.7132 23.9869 26.6985 24.7914 25.7751 25.6992L24.1136 24.7126C24.2155 23.6116 23.7274 22.5061 22.7736 21.8471C22.0845 21.3711 21.2514 21.1916 20.4275 21.3423C19.6036 21.4929 18.8876 21.9553 18.4116 22.6444L16.5086 25.3986C16.0324 26.0876 15.8532 26.9208 16.0038 27.7447C16.1544 28.5686 16.6167 29.2845 17.3058 29.7606C18.2047 30.3818 19.3382 30.4772 20.3053 30.069L21.8816 31.3267C21.4499 32.3051 21.1062 33.3198 20.8543 34.3594L18.9257 34.3975C18.4316 33.4082 17.434 32.7267 16.2759 32.6697C15.4401 32.6286 14.637 32.9158 14.0164 33.4784C13.3959 34.0409 13.0315 34.8113 12.9905 35.6477L12.8265 38.9915C12.7856 39.8279 13.0728 40.6303 13.6352 41.2509C14.1977 41.8715 14.9681 42.2358 15.8047 42.2769C16.8947 42.3288 17.9095 41.8137 18.5158 40.9568L20.521 41.1941C20.6851 42.3642 20.9649 43.5127 21.3532 44.6266L13.0868 50.9211C11.3686 47.4143 10.4128 43.6494 10.2452 39.7281C10.0761 35.7705 10.7214 31.905 12.1632 28.2392C13.5527 24.7068 15.6104 21.5271 18.2795 18.7884ZM29.5392 37.2144C28.6189 35.7956 29.2053 33.7754 30.8465 32.7108C31.6606 32.1829 32.6033 31.9695 33.4999 32.1106C34.3513 32.2443 35.0587 32.6857 35.4919 33.3534C35.5664 33.4683 35.6287 33.5896 35.6845 33.7139L30.1855 37.9012C29.93 37.7103 29.7108 37.4791 29.5392 37.2144ZM22.6662 40.0775C22.6189 39.5451 22.2048 39.1186 21.6739 39.0558L18.0038 38.6214C17.4629 38.5566 16.9548 38.8875 16.7927 39.4066C16.6739 39.7876 16.314 40.0406 15.9152 40.0205C15.4326 39.9969 15.0591 39.5849 15.0829 39.1022L15.2469 35.7584C15.2583 35.5245 15.3601 35.3092 15.5336 35.152C15.7071 34.9948 15.9315 34.9143 16.1654 34.9261C16.589 34.9469 16.9356 35.2672 16.9899 35.6876C17.0635 36.2596 17.5585 36.6832 18.1324 36.6727L21.7922 36.6002C22.3266 36.5897 22.7805 36.2058 22.8796 35.6807C23.1535 34.2305 23.6291 32.8268 24.2929 31.5091C24.5333 31.0319 24.4063 30.4515 23.9886 30.1181L21.1021 27.815C20.6772 27.476 20.0707 27.4879 19.6591 27.8433C19.3574 28.1043 18.9176 28.1286 18.5898 27.9022C18.3972 27.7691 18.268 27.569 18.2258 27.3387C18.1838 27.1084 18.2339 26.8755 18.367 26.6829L20.2701 23.9286C20.4032 23.736 20.6032 23.6068 20.8336 23.5647C21.064 23.5222 21.2969 23.5728 21.4895 23.7058C21.8384 23.9469 21.964 24.402 21.7882 24.7878C21.5493 25.3125 21.7437 25.9329 22.2394 26.2273L25.3892 28.0974C25.8484 28.3701 26.4356 28.284 26.7972 27.8909C27.9329 26.6564 29.2481 25.6136 30.7061 24.7918C31.171 24.5298 31.3891 23.978 31.2288 23.469L30.1206 19.9457C29.9575 19.4271 29.4482 19.0977 28.9077 19.1634C28.5112 19.211 28.1332 18.9857 27.9881 18.6149C27.8117 18.165 28.0343 17.6553 28.4843 17.479L31.601 16.2572C32.0506 16.0809 32.5605 16.3035 32.7369 16.7534C32.8917 17.1483 32.7417 17.5959 32.3804 17.8178C31.889 18.1195 31.7038 18.7428 31.9506 19.2638L33.5173 22.5709C33.7457 23.0532 34.2805 23.3097 34.7999 23.1859C36.0072 22.8981 37.252 22.7522 38.5 22.7522C41.5165 22.7522 44.3959 23.583 46.9141 25.1626L37.5086 32.3246C37.4693 32.2571 37.4296 32.1898 37.3869 32.124C36.6001 30.9108 35.3443 30.1134 33.8507 29.8788C32.4026 29.6515 30.8993 29.9839 29.6172 30.8155C26.9312 32.5578 26.046 35.9796 27.6439 38.4434C27.8465 38.7555 28.085 39.0403 28.3511 39.2975L23.258 43.1758C22.9588 42.1679 22.7597 41.1309 22.6662 40.0775Z" fill="black"/>
<path d="M58.7203 58.2116C56.0528 60.9486 52.9294 63.0863 49.4371 64.5648C45.8124 66.0995 41.9667 66.8439 38.01 66.7765C36.6929 66.7542 35.3678 66.6394 34.0711 66.4354C33.4548 66.3382 32.8767 66.7593 32.7799 67.3755C32.6829 67.9917 33.1038 68.5699 33.72 68.6667C35.1198 68.8869 36.5503 69.0108 37.9716 69.0349C38.1488 69.0379 38.3256 69.0394 38.5023 69.0394C42.5905 69.0394 46.563 68.2346 50.3178 66.6448C54.0883 65.0482 57.4595 62.7414 60.338 59.788C63.2179 56.833 65.4388 53.4011 66.9387 49.5875C68.4967 45.6262 69.1941 41.4501 69.0115 37.1754C68.8279 32.8792 67.7678 28.7564 65.8609 24.9212C65.5782 24.3527 65.0617 23.944 64.4439 23.7999C63.8274 23.6558 63.1854 23.7933 62.6821 24.1768L18.2666 57.9979C17.7635 58.3811 17.4605 58.9632 17.4355 59.5949C17.4104 60.2301 17.6683 60.8382 18.1432 61.2632C21.2767 64.0676 24.8806 66.1599 28.8549 67.4824C29.4465 67.6797 30.0863 67.3592 30.2832 66.7674C30.4801 66.1756 30.16 65.536 29.5681 65.3392C25.9408 64.132 22.6462 62.2318 19.7732 59.6899L27.9758 53.4439C28.5772 53.8728 29.1999 54.2643 29.8428 54.6142L29.1944 56.3763C28.9789 56.9618 29.2788 57.6108 29.8642 57.8263C29.9928 57.8736 30.1246 57.8961 30.2541 57.8961C30.714 57.8961 31.1461 57.6131 31.3143 57.1563L31.8987 55.5679C33.3217 56.1233 34.8139 56.4993 36.3489 56.6803L36.6178 58.5926C35.6946 59.2014 35.1371 60.2735 35.2192 61.4299C35.2785 62.2652 35.6595 63.0276 36.2922 63.5765C36.8674 64.0754 37.5879 64.3436 38.3419 64.3436C38.4172 64.3436 38.4928 64.3409 38.5687 64.3355L41.908 64.0986C43.6324 63.9763 44.936 62.4737 44.8135 60.7491C44.7361 59.6592 44.102 58.7147 43.1788 58.2152L43.1748 56.1987C44.4259 55.8663 45.6352 55.4013 46.7872 54.8092L48.0765 56.2433C47.6507 57.264 47.7872 58.4646 48.5011 59.3781C49.0169 60.038 49.7588 60.4574 50.59 60.5593C51.421 60.6613 52.2425 60.4334 52.9023 59.9176L55.5399 57.8562C56.902 56.7915 57.144 54.8172 56.0795 53.4549C55.4065 52.5939 54.3532 52.1643 53.3083 52.2659L52.1764 50.5921C52.8804 49.7866 53.5116 48.9214 54.0624 48.0068L55.9156 48.5457C56.0923 49.6375 56.8413 50.5855 57.9298 50.985C58.7161 51.2737 59.5675 51.2387 60.3276 50.8868C61.0875 50.535 61.665 49.9081 61.9536 49.122L63.1071 45.9792C63.7029 44.3563 62.8671 42.5511 61.244 41.9555C60.218 41.5789 59.0966 41.7701 58.2625 42.4071L56.42 41.5831C56.5773 40.6149 56.657 39.632 56.657 38.6503C56.657 38.2398 56.6424 37.8313 56.6154 37.425L58.5199 37.1466C59.1371 37.0564 59.5644 36.4829 59.474 35.8656C59.3838 35.2484 58.8105 34.8208 58.1931 34.9115L56.3263 35.1845C56.1457 34.2507 55.8921 33.3329 55.5648 32.4354L63.9129 26.0785C65.6311 29.5854 66.5869 33.3503 66.7545 37.2717C66.9236 41.2294 66.2783 45.0948 64.8365 48.7607C63.4472 52.2934 61.3893 55.473 58.7203 58.2116ZM49.3166 38.5C49.3166 39.7874 48.2692 40.8348 46.9818 40.8348C46.376 40.8348 45.8046 40.5963 45.3777 40.1928L49.0397 37.4043C49.2177 37.7381 49.3166 38.1122 49.3166 38.5ZM54.3983 38.6506C54.3983 39.7802 54.2781 40.9114 54.041 42.0127C53.9287 42.5344 54.1969 43.0636 54.6841 43.2813L58.0553 44.7892C58.5516 45.0112 59.1359 44.8481 59.4453 44.4007C59.6724 44.0724 60.0922 43.9391 60.4658 44.0763C60.9196 44.2427 61.1532 44.7474 60.9866 45.2011L59.833 48.3439C59.6665 48.7976 59.1615 49.031 58.7081 48.8646C58.3099 48.7185 58.0744 48.3094 58.1482 47.8919C58.2485 47.324 57.9048 46.772 57.3513 46.6111L53.837 45.5894C53.3242 45.4401 52.7776 45.6704 52.5259 46.141C51.8306 47.4402 50.9569 48.6378 49.9289 49.7007C49.5576 50.0846 49.5059 50.6761 49.8051 51.1186L51.8758 54.1806C52.1805 54.6312 52.763 54.8006 53.2616 54.5837C53.6275 54.4246 54.0548 54.5325 54.2999 54.8465C54.5975 55.2272 54.5299 55.7793 54.1492 56.0769L51.5115 58.1384C51.327 58.2826 51.0975 58.3465 50.8652 58.3177C50.6328 58.2893 50.4254 58.172 50.2813 57.9875C50.0202 57.6533 50.0358 57.1815 50.3188 56.8655C50.7034 56.4361 50.7028 55.7858 50.3173 55.357L47.8705 52.6352C47.5131 52.2378 46.9262 52.1449 46.4639 52.4132C45.014 53.2541 43.4483 53.8564 41.8101 54.2032C41.2872 54.3139 40.9135 54.7759 40.9145 55.3105L40.9219 59.0034C40.9229 59.5472 41.3115 60.0131 41.8462 60.1118C42.2387 60.1842 42.5325 60.5122 42.5607 60.9094C42.595 61.3915 42.2305 61.8115 41.7483 61.8457L38.4089 62.0827C38.1764 62.0985 37.9495 62.024 37.7727 61.8705C37.5957 61.7171 37.4892 61.504 37.4727 61.2704C37.4426 60.8474 37.7192 60.4647 38.1303 60.3607C38.6892 60.2193 39.0518 59.6795 38.9715 59.1086L38.4618 55.4814C38.3874 54.9521 37.9522 54.5474 37.4189 54.5118C34.7105 54.33 32.1293 53.4663 29.8705 52.0017L43.5708 41.5692C44.4291 42.5211 45.6641 43.0942 46.9819 43.0942C49.5149 43.0942 51.5757 41.0334 51.5757 38.5004C51.5757 37.6119 51.3186 36.757 50.8506 36.026L53.6688 33.8801C54.1525 35.4158 54.3983 37.0145 54.3983 38.6506Z" fill="black"/>
<path d="M42.5112 45.1304C40.6006 45.1304 39.0464 46.6847 39.0464 48.5952C39.0464 50.5058 40.6006 52.0601 42.5112 52.0601C44.4218 52.0601 45.9761 50.5058 45.9761 48.5952C45.9761 46.6847 44.4218 45.1304 42.5112 45.1304ZM42.5112 49.8012C41.8462 49.8012 41.3053 49.2603 41.3053 48.5952C41.3053 47.9302 41.8462 47.3893 42.5112 47.3893C43.1762 47.3893 43.7172 47.9302 43.7172 48.5952C43.7172 49.2603 43.1762 49.8012 42.5112 49.8012Z" fill="black"/>
</svg>
